<?xml version="1.0" encoding="utf-8"?>
<!-- Generator: Adobe Illustrator 25.2.0, SVG Export Plug-In . SVG Version: 6.00 Build 0)  -->
<svg version="1.1" id="Layer_1" xmlns="http://www.w3.org/2000/svg" xmlns:xlink="http://www.w3.org/1999/xlink" x="0px" y="0px"
	 viewBox="0 0 406 48" enable-background="new 0 0 406 48" xml:space="preserve">
<g>
	<path fill="#F4F3F0" d="M2.9,2.2h16.7c9.1,0,14.7,3.5,14.7,11.2c0,4.7-2.8,7.9-7.3,9.3c6.6,1.1,10.7,4.5,10.7,11
		c0,6.9-5.2,11.3-15.2,11.3H2.9V2.2z M18.4,20.3c5.5,0,9-1.8,9-6.1c0-4.7-3.2-6.3-8.7-6.3H9.6v12.4H18.4z M21.7,39.4
		c6,0,9-2.2,9-6.4c0-4.9-3.8-6.9-10.1-6.9h-11v13.3H21.7z"/>
	<path fill="#F4F3F0" d="M61.5,2.2h18.8c8.2,0,16.3,3.7,16.3,13.7c0,7.8-6.2,12.9-13.6,13.4c4.2,4.3,9.1,10.6,14.5,10.6
		c1.7,0,3.7-0.4,5.2-1.2l0.7,5.3c-1.8,0.9-4.3,1.6-6.9,1.6c-9.6,0-16.6-12.7-21.7-16.4h-6.6V45h-6.6V2.2z M68.1,7.9V24H81
		c4.8,0,8.7-3,8.7-8c0-5.5-3.8-8.1-8.7-8.1H68.1z"/>
	<path fill="#F4F3F0" d="M136.8,2.2h7.6L161.6,45h-6.7l-3.8-9.5h-21.6l-3.9,9.5h-6.7L136.8,2.2z M131.2,30.6h18.1l-8.8-21.9
		L131.2,30.6z"/>
	<polygon fill="#F4F3F0" points="187.5,12.6 187.5,45 180.9,45 180.9,2.2 186.7,2.2 214.2,34.7 214.2,2.2 220.8,2.2 220.8,45 
		215,45 	"/>
	<path fill="#F4F3F0" d="M245.8,2.2h17.6c12.8,0.1,22.4,7.6,22.4,21.5c0,13.8-9.6,21.4-22.4,21.4h-17.6V2.2z M252.5,7.9v31.4h10.7
		c9.2,0,15.8-5.5,15.8-15.6c0-10.2-6.6-15.7-15.8-15.8H252.5z"/>
	<path fill="#F4F3F0" d="M362.9,2.2h17.6c12.8,0.1,22.4,7.6,22.4,21.5c0,13.8-9.6,21.4-22.4,21.4h-17.6V2.2z M369.5,7.9v31.4h10.7
		c9.2,0,15.8-5.5,15.8-15.6c0-10.2-6.6-15.7-15.8-15.8H369.5z"/>
	<rect x="306.7" y="39.3" fill="#F4F3F0" width="33.6" height="5.8"/>
	<rect x="306.7" y="20.4" fill="#F4F3F0" width="28.9" height="5.8"/>
	<rect x="306.7" y="2.3" fill="#F4F3F0" width="24.9" height="5.8"/>
</g>
</svg>
